<?xml version="1.0" encoding="UTF-8"?>
<svg xmlns="http://www.w3.org/2000/svg" viewBox="0 0 1200 630" width="1200" height="630">
  <defs>
    <linearGradient id="g99223" x1="92.4024048078213%" y1="23.504036788339754%" x2="7.5975951921787015%" y2="76.49596321166024%">
      <stop offset="0%" stop-color="#1E40AF"/>
      <stop offset="100%" stop-color="#1E3A8A"/>
    </linearGradient>
  </defs>
  <rect width="1200" height="630" fill="url(#g99223)"/>
  <path d="M 80 326.9105034787208 L 80 326.9105034787208 L 88 326.9105034787208 L 96 326.9105034787208 L 104 326.9105034787208 L 112 326.9105034787208 L 120 326.9105034787208 L 128 326.9105034787208 L 136 326.9105034787208 L 144 326.9105034787208 L 152 326.9105034787208 L 160 326.9105034787208 L 168 326.9105034787208 L 176 326.9105034787208 L 184 326.9105034787208 L 192 326.9105034787208 L 200 326.9105034787208 L 208 326.9105034787208 L 216 326.9105034787208 L 224 326.9105034787208 L 232 326.9105034787208 L 240 326.9105034787208 L 248 326.9105034787208 L 256 283.7240645381237 L 264 238.05658475645376 L 272 263.31150053493496 L 280 326.9105034787208 L 288 326.9105034787208 L 296 326.9105034787208 L 304 326.9105034787208 L 312 326.9105034787208 L 320 326.9105034787208 L 328 326.9105034787208 L 336 326.9105034787208 L 344 326.9105034787208 L 352 326.9105034787208 L 360 326.9105034787208 L 368 326.9105034787208 L 376 326.9105034787208 L 384 326.9105034787208 L 392 326.9105034787208 L 400 326.9105034787208 L 408 326.9105034787208 L 416 326.9105034787208 L 424 326.9105034787208 L 432 326.9105034787208 L 440 326.9105034787208 L 448 326.9105034787208 L 456 326.9105034787208 L 464 326.9105034787208 L 472 326.9105034787208 L 480 326.9105034787208 L 488 326.9105034787208 L 496 326.9105034787208 L 504 296.0192017345899 L 512 251.47987815720592 L 520 264.7775282886305 L 528 308.51143850239873 L 536 326.9105034787208 L 544 326.9105034787208 L 552 326.9105034787208 L 560 326.9105034787208 L 568 326.9105034787208 L 576 326.9105034787208 L 584 326.9105034787208 L 592 326.9105034787208 L 600 326.9105034787208 L 608 326.9105034787208 L 616 326.9105034787208 L 624 326.9105034787208 L 632 326.9105034787208 L 640 326.9105034787208 L 648 326.9105034787208 L 656 326.9105034787208 L 664 326.9105034787208 L 672 326.9105034787208 L 680 326.9105034787208 L 688 326.9105034787208 L 696 326.9105034787208 L 704 326.9105034787208 L 712 326.9105034787208 L 720 326.9105034787208 L 728 326.9105034787208 L 736 326.9105034787208 L 744 326.9105034787208 L 752 311.8991185370824 L 760 262.1700188994524 L 768 247.43651851617088 L 776 292.69414531867636 L 784 326.9105034787208 L 792 326.9105034787208 L 800 326.9105034787208 L 808 326.9105034787208 L 816 326.9105034787208 L 824 326.9105034787208 L 832 326.9105034787208 L 840 326.9105034787208 L 848 326.9105034787208 L 856 326.9105034787208 L 864 326.9105034787208 L 872 326.9105034787208 L 880 326.9105034787208 L 888 326.9105034787208 L 896 326.9105034787208 L 904 326.9105034787208 L 912 326.9105034787208 L 920 326.9105034787208 L 928 326.9105034787208 L 936 326.9105034787208 L 944 326.9105034787208 L 952 326.9105034787208 L 960 326.9105034787208 L 968 326.9105034787208 L 976 326.9105034787208 L 984 326.9105034787208 L 992 326.9105034787208 L 1000 326.9105034787208 L 1008 259.4732480009185 L 1016 246.46021709870746 L 1024 277.50715220197395 L 1032 326.9105034787208 L 1040 326.9105034787208 L 1048 326.9105034787208 L 1056 326.9105034787208 L 1064 326.9105034787208 L 1072 326.9105034787208 L 1080 326.9105034787208 L 1088 326.9105034787208 L 1096 326.9105034787208 L 1104 326.9105034787208 L 1112 326.9105034787208 L 1120 326.9105034787208" fill="none" stroke="rgba(255,255,255,0.18)" stroke-width="2.5"/><rect x="262.9460679013282" y="190.412258207798" width="24" height="80" rx="4" fill="rgba(255,255,255,0.1)"/><rect x="234.9460679013282" y="218.412258207798" width="80" height="24" rx="4" fill="rgba(255,255,255,0.1)"/><path d="M 964.6876032464206 223.9224500581622 C 964.6876032464206 208.9224500581622 929.6876032464206 173.9224500581622 929.6876032464206 188.9224500581622 C 929.6876032464206 203.9224500581622 964.6876032464206 218.9224500581622 964.6876032464206 238.9224500581622 C 964.6876032464206 218.9224500581622 999.6876032464206 203.9224500581622 999.6876032464206 188.9224500581622 C 999.6876032464206 173.9224500581622 964.6876032464206 208.9224500581622 964.6876032464206 223.9224500581622 Z" fill="rgba(255,255,255,0.08)" stroke="rgba(255,255,255,0.15)" stroke-width="1.5"/><circle cx="204.37366026453674" cy="460.3831904893741" r="28.631097381468862" fill="none" stroke="rgba(255,255,255,0.11178445614874363)" stroke-width="1.5"/><circle cx="840.8330703852698" cy="529.7783427359536" r="31.32104571023956" fill="none" stroke="rgba(255,255,255,0.12139323148876428)" stroke-width="1.5"/><circle cx="667.1159933321178" cy="444.8013037396595" r="25.4578948142007" fill="none" stroke="rgba(255,255,255,0.13501590192317964)" stroke-width="1.5"/><circle cx="264.3858355935663" cy="530.9490343090147" r="21.959171700756997" fill="none" stroke="rgba(255,255,255,0.11999247040599584)" stroke-width="1.5"/>
  <circle cx="701.7198356799781" cy="409.4495559926145" r="2.998628761153668" fill="rgba(255,255,255,0.03973888385342434)"/><circle cx="326.3899781741202" cy="18.382589912507683" r="1.8917171112261713" fill="rgba(255,255,255,0.0503425700427033)"/><circle cx="428.9560644887388" cy="81.59571568015963" r="2.35266804182902" fill="rgba(255,255,255,0.06972614032682031)"/><circle cx="368.1187329813838" cy="297.4698639311828" r="2.5838508401066065" fill="rgba(255,255,255,0.07018718493171036)"/><circle cx="906.095440685749" cy="87.29337888071314" r="1.3667644415982068" fill="rgba(255,255,255,0.05525891058612615)"/><circle cx="19.077690225094557" cy="478.80119708832353" r="1.563157778698951" fill="rgba(255,255,255,0.04804640613263473)"/><circle cx="813.4589488618076" cy="609.4292784528807" r="2.536725106649101" fill="rgba(255,255,255,0.05979362735059113)"/><circle cx="51.22376913204789" cy="389.39632126595825" r="1.8471985878422856" fill="rgba(255,255,255,0.055569053157232706)"/><circle cx="253.27240051701665" cy="97.33623899985105" r="1.0411563944071531" fill="rgba(255,255,255,0.05513917537871749)"/><circle cx="1035.0871176458895" cy="170.43676918605343" r="2.476805772166699" fill="rgba(255,255,255,0.0744669027463533)"/><circle cx="345.79871306195855" cy="183.22464234894142" r="1.1006791167892516" fill="rgba(255,255,255,0.045415089239832014)"/><circle cx="14.04085261747241" cy="158.96836780244485" r="2.1388878491707146" fill="rgba(255,255,255,0.06799177155597136)"/>
  <text x="600" y="335" font-family="system-ui, -apple-system, 'Segoe UI', sans-serif" font-size="68" font-weight="700" fill="rgba(0,0,0,0.15)" text-anchor="middle" letter-spacing="1">DAT</text>
  <text x="600" y="332" font-family="system-ui, -apple-system, 'Segoe UI', sans-serif" font-size="68" font-weight="700" fill="white" text-anchor="middle" letter-spacing="1">DAT</text>
  <g transform="translate(1140, 575)">
    <rect x="0" y="0" width="40" height="40" rx="8" fill="rgba(255,255,255,0.15)"/>
    <text x="20" y="29" font-family="sans-serif" font-weight="bold" font-size="24" fill="rgba(255,255,255,0.6)" text-anchor="middle">K</text>
  </g>
</svg>